<svg width="34" height="33" viewBox="0 0 34 33" fill="none" xmlns="http://www.w3.org/2000/svg">
<path d="M33.5977 8.65654L30 21.212C29.7416 22.1149 29 23.212 28.5 23.712C27.7848 24.2726 27.6801 24.324 26.0299 24.324L12.2149 24.6047C11.3131 24.6016 10.4365 24.2884 9.71648 23.712C8.99646 23.1357 8.47179 22.3272 8.22109 21.4077L3.18091 2.21201L2 2.21201C1.52801 2.21201 1 2.21201 1 2.21201C0.5 2.21201 0 1.712 0 1.212C0 0.825501 0.16624 0.566241 0.49999 0.212005C0.770052 -0.0746353 2.93072 0.0124365 3.40272 0.0124365C4.04687 0.0145486 4.11987 0.153878 4.63407 0.565681C5.18746 1.00887 5.49999 2.21201 5.49999 2.21201L6.49999 6.212H31.8966C32.1751 6.21198 32.4498 6.28134 32.6984 6.4145C32.9471 6.54767 33.1628 6.74091 33.3283 6.9787C33.4938 7.21649 33.6043 7.49218 33.6511 7.7836C33.6979 8.07501 33.6796 8.37401 33.5977 8.65654ZM31.2408 8.54559H7.11394L10.7866 21.5851C10.822 21.7167 10.897 21.8325 11 21.9149C11.103 21.9973 11.2285 22.0417 11.3575 22.0416L27 21.9149C27.127 21.9152 27.2507 21.8722 27.3529 21.7923C27.4551 21.7124 27.5305 21.5998 27.568 21.471L31.2408 8.54559Z" fill="#212121"/>
<path d="M25.6111 27.6333C26.0222 27.3586 26.5055 27.212 27 27.212C27.663 27.212 28.2989 27.4754 28.7678 27.9442C29.2366 28.4131 29.5 29.049 29.5 29.712C29.5 30.2065 29.3534 30.6898 29.0787 31.1009C28.804 31.5121 28.4135 31.8325 27.9567 32.0217C27.4999 32.2109 26.9972 32.2604 26.5123 32.164C26.0273 32.0675 25.5819 31.8294 25.2322 31.4798C24.8826 31.1301 24.6445 30.6847 24.548 30.1997C24.4516 29.7148 24.5011 29.2121 24.6903 28.7553C24.8795 28.2985 25.2 27.908 25.6111 27.6333Z" fill="#212121"/>
<path d="M9.61108 27.6333C10.0222 27.3586 10.5055 27.212 11 27.212C11.663 27.212 12.2989 27.4754 12.7678 27.9442C13.2366 28.4131 13.5 29.049 13.5 29.712C13.5 30.2065 13.3534 30.6898 13.0787 31.1009C12.804 31.5121 12.4135 31.8325 11.9567 32.0217C11.4999 32.2109 10.9972 32.2604 10.5123 32.164C10.0273 32.0675 9.58187 31.8294 9.23223 31.4798C8.8826 31.1301 8.6445 30.6847 8.54804 30.1997C8.45157 29.7148 8.50108 29.2121 8.6903 28.7553C8.87952 28.2985 9.19995 27.908 9.61108 27.6333Z" fill="#212121"/>
</svg>
