<svg width="217" height="38" viewBox="0 0 217 38" fill="none" xmlns="http://www.w3.org/2000/svg">
<path d="M0.34375 37V0.636363H16.0398C18.7386 0.636363 21.1001 1.1276 23.1243 2.11008C25.1484 3.09257 26.7228 4.5071 27.8473 6.35369C28.9718 8.20028 29.5341 10.4138 29.5341 12.9943C29.5341 15.5985 28.9541 17.7943 27.794 19.5817C26.6458 21.3691 25.0301 22.7185 22.9467 23.63C20.8752 24.5414 18.4545 24.9972 15.6847 24.9972H6.30966V17.3267H13.696C14.8561 17.3267 15.8445 17.1847 16.6612 16.9006C17.4898 16.6046 18.1231 16.1371 18.5611 15.4979C19.0109 14.8587 19.2358 14.0241 19.2358 12.9943C19.2358 11.9527 19.0109 11.1063 18.5611 10.4553C18.1231 9.79238 17.4898 9.30705 16.6612 8.99929C15.8445 8.67969 14.8561 8.51988 13.696 8.51988H10.2159V37H0.34375ZM21.6506 20.3097L30.7415 37H20.017L11.1392 20.3097H21.6506Z" fill="#E86443"/>
<path d="M68.9695 18.8182C68.9695 22.8665 68.1823 26.2815 66.608 29.0632C65.0336 31.8331 62.9089 33.9342 60.2337 35.3665C57.5585 36.7869 54.5755 37.4972 51.2848 37.4972C47.9704 37.4972 44.9756 36.781 42.3004 35.3487C39.6371 33.9046 37.5182 31.7976 35.9439 29.0277C34.3814 26.246 33.6001 22.8428 33.6001 18.8182C33.6001 14.7699 34.3814 11.3608 35.9439 8.59091C37.5182 5.80918 39.6371 3.70809 42.3004 2.28764C44.9756 0.855349 47.9704 0.139203 51.2848 0.139203C54.5755 0.139203 57.5585 0.855349 60.2337 2.28764C62.9089 3.70809 65.0336 5.80918 66.608 8.59091C68.1823 11.3608 68.9695 14.7699 68.9695 18.8182ZM58.8132 18.8182C58.8132 16.6402 58.5232 14.8054 57.9432 13.3139C57.375 11.8106 56.5286 10.6742 55.4041 9.90483C54.2914 9.12358 52.9183 8.73295 51.2848 8.73295C49.6513 8.73295 48.2723 9.12358 47.1477 9.90483C46.035 10.6742 45.1887 11.8106 44.6087 13.3139C44.0405 14.8054 43.7564 16.6402 43.7564 18.8182C43.7564 20.9962 44.0405 22.8369 44.6087 24.3402C45.1887 25.8317 46.035 26.968 47.1477 27.7493C48.2723 28.5187 49.6513 28.9034 51.2848 28.9034C52.9183 28.9034 54.2914 28.5187 55.4041 27.7493C56.5286 26.968 57.375 25.8317 57.9432 24.3402C58.5232 22.8369 58.8132 20.9962 58.8132 18.8182Z" fill="#A5B670"/>
<path d="M95.057 0.636363H104.929V23.9318C104.929 26.7017 104.266 29.0987 102.941 31.1229C101.627 33.1352 99.7918 34.6918 97.4363 35.7926C95.0807 36.8816 92.3463 37.4261 89.2331 37.4261C86.0963 37.4261 83.3501 36.8816 80.9945 35.7926C78.6389 34.6918 76.8042 33.1352 75.4902 31.1229C74.1882 29.0987 73.5371 26.7017 73.5371 23.9318V0.636363H83.4093V23.0795C83.4093 24.2041 83.6578 25.2102 84.155 26.098C84.6522 26.974 85.3387 27.6605 86.2147 28.1577C87.1025 28.6548 88.1086 28.9034 89.2331 28.9034C90.3695 28.9034 91.3757 28.6548 92.2516 28.1577C93.1275 27.6605 93.8141 26.974 94.3113 26.098C94.8084 25.2102 95.057 24.2041 95.057 23.0795V0.636363ZM129.223 12C129.129 10.8163 128.685 9.89299 127.892 9.23011C127.11 8.56723 125.921 8.23579 124.323 8.23579C123.305 8.23579 122.47 8.36008 121.819 8.60866C121.18 8.84541 120.707 9.17093 120.399 9.58523C120.091 9.99953 119.931 10.473 119.919 11.0057C119.896 11.4437 119.973 11.8402 120.15 12.1953C120.34 12.5386 120.636 12.8523 121.038 13.1364C121.44 13.4086 121.955 13.6572 122.583 13.8821C123.21 14.107 123.956 14.3082 124.82 14.4858L127.803 15.125C129.815 15.5511 131.538 16.1134 132.97 16.8118C134.402 17.5102 135.574 18.3329 136.485 19.2798C137.397 20.215 138.066 21.2685 138.492 22.4403C138.93 23.6122 139.155 24.8906 139.167 26.2756C139.155 28.6667 138.557 30.6908 137.373 32.348C136.19 34.0052 134.497 35.2659 132.295 36.13C130.105 36.9941 127.471 37.4261 124.394 37.4261C121.233 37.4261 118.475 36.9586 116.12 36.0234C113.776 35.0883 111.953 33.6501 110.651 31.7088C109.361 29.7557 108.71 27.258 108.698 24.2159H118.073C118.132 25.3286 118.41 26.2637 118.907 27.0213C119.404 27.7789 120.103 28.353 121.002 28.7436C121.914 29.1342 122.997 29.3295 124.252 29.3295C125.305 29.3295 126.187 29.1993 126.897 28.9389C127.608 28.6785 128.146 28.3175 128.513 27.8558C128.88 27.3942 129.069 26.8674 129.081 26.2756C129.069 25.7192 128.886 25.2339 128.531 24.8196C128.188 24.3935 127.619 24.0147 126.826 23.6832C126.033 23.34 124.962 23.0204 123.613 22.7244L119.99 21.9432C116.771 21.2448 114.232 20.0788 112.373 18.4453C110.527 16.8 109.609 14.5568 109.621 11.7159C109.609 9.40767 110.225 7.38944 111.468 5.66122C112.722 3.92116 114.457 2.56581 116.67 1.59517C118.895 0.624525 121.446 0.139203 124.323 0.139203C127.258 0.139203 129.797 0.630444 131.94 1.61293C134.083 2.59541 135.734 3.98035 136.894 5.76776C138.066 7.54332 138.658 9.62074 138.669 12H129.223ZM142.922 37V0.636363H152.794V14.8409H165.862V0.636363H175.734V37H165.862V22.7955H152.794V37H142.922ZM189.868 37H179.214L191.217 0.636363H204.712L216.714 37H206.061L198.107 10.6506H197.822L189.868 37ZM187.879 22.6534H207.908V30.0398H187.879V22.6534Z" fill="#212121"/>
</svg>
