<svg width="31" height="31" viewBox="0 0 31 31" fill="none" xmlns="http://www.w3.org/2000/svg">
<path d="M29.375 29.375L22.6795 22.6795M22.6795 22.6795C23.8248 21.5343 24.7333 20.1746 25.3531 18.6782C25.9729 17.1818 26.2919 15.578 26.2919 13.9583C26.2919 12.3387 25.9729 10.7348 25.3531 9.23845C24.7333 7.74206 23.8248 6.38241 22.6795 5.23712C21.5342 4.09184 20.1746 3.18335 18.6782 2.56352C17.1818 1.9437 15.578 1.62468 13.9583 1.62468C12.3386 1.62468 10.7348 1.9437 9.2384 2.56352C7.74201 3.18335 6.38236 4.09184 5.23708 5.23712C2.92407 7.55013 1.62463 10.6872 1.62463 13.9583C1.62463 17.2294 2.92407 20.3665 5.23708 22.6795C7.55008 24.9925 10.6872 26.292 13.9583 26.292C17.2294 26.292 20.3665 24.9925 22.6795 22.6795Z" stroke="#212121" stroke-width="2.5" stroke-linecap="round" stroke-linejoin="round"/>
</svg>
