<svg width="29" height="33" viewBox="0 0 29 33" fill="none" xmlns="http://www.w3.org/2000/svg">
<path fill-rule="evenodd" clip-rule="evenodd" d="M14.5 0.158333C12.3435 0.155461 10.2587 0.932023 8.62953 2.34494C7.00041 3.75786 5.93678 5.71193 5.63463 7.84713C5.33247 9.98233 5.81215 12.1548 6.98527 13.9643C8.1584 15.7737 9.94593 17.0983 12.0185 17.6939C9.07333 18.0515 6.54746 19.0925 4.64319 20.9696C2.22093 23.3549 0.994995 26.9093 0.994995 31.5467C0.994995 31.8574 1.11844 32.1554 1.33817 32.3752C1.5579 32.5949 1.85592 32.7183 2.16666 32.7183C2.47741 32.7183 2.77542 32.5949 2.99516 32.3752C3.21489 32.1554 3.33833 31.8574 3.33833 31.5467C3.33833 27.304 4.45573 24.4427 6.28846 22.6371C8.12366 20.829 10.8666 19.8917 14.5 19.8917C18.1334 19.8917 20.8763 20.829 22.714 22.6371C24.5443 24.4451 25.6617 27.304 25.6617 31.5467C25.6617 31.8574 25.7851 32.1554 26.0048 32.3752C26.2246 32.5949 26.5226 32.7183 26.8333 32.7183C27.1441 32.7183 27.4421 32.5949 27.6618 32.3752C27.8815 32.1554 28.005 31.8574 28.005 31.5467C28.005 26.9093 26.7791 23.3573 24.3543 20.9696C22.455 19.0949 19.9267 18.0515 16.9815 17.6939C19.0471 17.0916 20.8266 15.765 21.9936 13.9573C23.1606 12.1496 23.637 9.98182 23.3355 7.85135C23.034 5.72089 21.9749 3.77044 20.3521 2.35751C18.7293 0.944579 16.6517 0.163818 14.5 0.158333ZM7.90166 9.1C7.90166 7.35001 8.59684 5.6717 9.83427 4.43427C11.0717 3.19685 12.75 2.50167 14.5 2.50167C16.25 2.50167 17.9283 3.19685 19.1657 4.43427C20.4031 5.6717 21.0983 7.35001 21.0983 9.1C21.0983 10.85 20.4031 12.5283 19.1657 13.7657C17.9283 15.0032 16.25 15.6983 14.5 15.6983C12.75 15.6983 11.0717 15.0032 9.83427 13.7657C8.59684 12.5283 7.90166 10.85 7.90166 9.1Z" fill="#212121"/>
</svg>
